<svg width="32" height="32" viewBox="0 0 32 32" fill="none" xmlns="http://www.w3.org/2000/svg">
<path d="M31.4614 28.084L24.5572 17.8755C24.3947 17.6325 24.1511 17.3894 23.9074 17.2274L23.3388 16.8223C22.689 16.3362 22.689 15.4449 23.3388 14.9588L23.8262 14.6347C24.0698 14.4727 24.3135 14.2296 24.476 13.9866L31.5426 3.9401C32.1112 3.04888 32.1924 1.9146 31.5426 1.1044C30.7303 0.0511452 29.2683 -0.191912 28.2123 0.537267L17.9779 7.42396C17.7342 7.586 17.4906 7.82906 17.3281 8.07212L16.922 8.63926C16.4346 9.28742 15.5412 9.28742 15.0538 8.63926L14.7289 8.15313C14.5664 7.91008 14.3228 7.66702 14.0791 7.50498L4.00712 0.456242C3.11364 -0.110897 1.97648 -0.191917 1.16423 0.456242C0.108295 1.26644 -0.135379 2.72481 0.595651 3.77806L7.49982 13.9866C7.66228 14.2296 7.90595 14.4727 8.14963 14.6347L8.71821 15.0398C9.36801 15.5259 9.36801 16.4172 8.71821 16.9033L8.23085 17.2274C7.98717 17.3894 7.74351 17.6325 7.58105 17.8755L0.433202 28.003C-0.216603 28.9753 -0.135375 30.2716 0.676881 31.0818C1.48914 31.892 2.78874 32.054 3.76344 31.4059L13.9979 24.5192C14.2415 24.3571 14.4852 24.1141 14.6477 23.871L15.0538 23.3039C15.5412 22.6557 16.4346 22.6557 16.922 23.3039L17.2469 23.79C17.4093 24.033 17.653 24.2761 17.8967 24.4381L28.1311 31.5679C29.1058 32.2161 30.4054 32.135 31.2177 31.3248C32.0299 30.3526 32.1112 29.0563 31.4614 28.084Z" fill="white"/>
</svg>
